<svg xmlns="http://www.w3.org/2000/svg" width="18" height="20" viewBox="0 0 18 20">
  <!-- Slepice: brown hen with a red comb, faces right. Foot centre (9, 20). -->
  <defs><linearGradient id="hen" x1="0" y1="0" x2="0" y2="1"><stop offset="0" stop-color="#c97a3a"/><stop offset="1" stop-color="#8a4a1f"/></linearGradient>
  </defs>
  <ellipse cx="9" cy="19.4" rx="6" ry="0.8" fill="#1d2a14" fill-opacity="0.18"/>
  <path d="M7 19.6 V15 M10 19.6 V15" stroke="#e0a030" stroke-width="0.8"/>
  <path d="M2 8 Q1 16 8 16 Q14 16 14 11 Q14 6 11 6 Q8 8 5 6 Q2 4 2 8 Z" fill="url(#hen)" stroke="#1d2a14" stroke-width="0.6" stroke-linejoin="round"/>
  <path d="M5 10 Q8 13 11 10" stroke="#7a3d1f" stroke-width="0.5" fill="none"/>
  <path d="M2 8 Q-0.4 4 1.4 2 Q3 5 3.6 6" fill="#5a2a1a" stroke="#1d2a14" stroke-width="0.6" stroke-linejoin="round"/>
  <circle cx="13" cy="5.4" r="3" fill="url(#hen)" stroke="#1d2a14" stroke-width="0.6" stroke-linejoin="round"/>
  <path d="M11.8 2.4 Q12.4 0.6 13.4 1.8 Q14.4 0.4 15 2.6 Z" fill="#e53935" stroke="#1d2a14" stroke-width="0.6" stroke-linejoin="round"/>
  <path d="M15.8 5.4 L17.8 6.2 L15.8 6.8 Z" fill="#f4b400" stroke="#1d2a14" stroke-width="0.6" stroke-linejoin="round"/><path d="M15 7.4 Q15.6 9 14.6 9.2" fill="#e53935"/>
  <circle cx="14" cy="4.8" r="0.55" fill="#1b1b1b"/><circle cx="14.19" cy="4.61" r="0.19" fill="#ffffff"/>
</svg>
