<svg xmlns="http://www.w3.org/2000/svg" width="120" height="90" viewBox="0 0 120 90">
  <!-- Hájovna: log cabin with a mossy roof and antlers over the door. Foot centre (60, 90). -->
  <defs><linearGradient id="bark" x1="0" y1="0" x2="0" y2="1"><stop offset="0" stop-color="#a5794a"/><stop offset="1" stop-color="#6d4c33"/></linearGradient><linearGradient id="roof" x1="0" y1="0" x2="0" y2="1"><stop offset="0" stop-color="#6b8e3a"/><stop offset="1" stop-color="#3f5a2a"/></linearGradient>
  </defs>
  <ellipse cx="60" cy="89" rx="58" ry="2.4" fill="#1d2a14" fill-opacity="0.18"/>
  <rect x="12" y="44" width="96" height="4.4" rx="2.2" fill="url(#bark)" stroke="#3a2618" stroke-width="0.4"/><rect x="12" y="48.6" width="96" height="4.4" rx="2.2" fill="url(#bark)" stroke="#3a2618" stroke-width="0.4"/><rect x="12" y="53.2" width="96" height="4.4" rx="2.2" fill="url(#bark)" stroke="#3a2618" stroke-width="0.4"/><rect x="12" y="57.8" width="96" height="4.4" rx="2.2" fill="url(#bark)" stroke="#3a2618" stroke-width="0.4"/><rect x="12" y="62.4" width="96" height="4.4" rx="2.2" fill="url(#bark)" stroke="#3a2618" stroke-width="0.4"/><rect x="12" y="67" width="96" height="4.4" rx="2.2" fill="url(#bark)" stroke="#3a2618" stroke-width="0.4"/><rect x="12" y="71.6" width="96" height="4.4" rx="2.2" fill="url(#bark)" stroke="#3a2618" stroke-width="0.4"/><rect x="12" y="76.2" width="96" height="4.4" rx="2.2" fill="url(#bark)" stroke="#3a2618" stroke-width="0.4"/><rect x="12" y="80.8" width="96" height="4.4" rx="2.2" fill="url(#bark)" stroke="#3a2618" stroke-width="0.4"/><rect x="12" y="85.4" width="96" height="4.4" rx="2.2" fill="url(#bark)" stroke="#3a2618" stroke-width="0.4"/>
  <path d="M2 46 L30 10 H90 L118 46 Z" fill="url(#roof)" stroke="#1d2a14" stroke-width="0.6" stroke-linejoin="round"/>
  <path d="M8 40 H112 M16 30 H104 M24 20 H96" stroke="#3f4a2b" stroke-width="0.5"/>
  <rect x="78" y="2" width="7" height="14" fill="#7a5c3e" stroke="#1d2a14" stroke-width="0.6" stroke-linejoin="round"/>
  <rect x="24" y="56" width="16" height="13" fill="#3d5a6c" stroke="#1d2a14" stroke-width="0.6" stroke-linejoin="round"/><path d="M32 56 V69 M24 62 H40" stroke="#e8d5b0" stroke-width="1"/>
  <rect x="80" y="56" width="16" height="13" fill="#3d5a6c" stroke="#1d2a14" stroke-width="0.6" stroke-linejoin="round"/><path d="M88 56 V69 M80 62 H96" stroke="#e8d5b0" stroke-width="1"/>
  <rect x="52" y="62" width="14" height="26" fill="#6d4c33" stroke="#1d2a14" stroke-width="0.6" stroke-linejoin="round"/><circle cx="63" cy="76" r="0.8" fill="#d4ac0d"/>
  <path d="M54 34 l6 -6 l6 6 l-6 0 z" fill="#c9a13a" stroke="#1d2a14" stroke-width="0.6" stroke-linejoin="round"/>
  <path d="M12.22 89 Q13.13 86.6 13.86 85 Q13.33 87 13.42 89 Z" fill="#4e8a2c"/><path d="M58.88 89 Q59.43 86.95 59.29 85.58 Q59.74 87.29 60.08 89 Z" fill="#4e8a2c"/><path d="M24.04 89 Q25.03 86.31 25.96 84.51 Q25.2 86.76 25.24 89 Z" fill="#3f7424"/><path d="M40.02 89 Q40.63 86.91 40.65 85.52 Q40.93 87.26 41.22 89 Z" fill="#3f7424"/><path d="M90.29 89 Q91.03 86.5 91.34 84.84 Q91.28 86.92 91.49 89 Z" fill="#4e8a2c"/><path d="M46.1 89 Q46.86 87.68 47.24 86.79 Q47.11 87.9 47.3 89 Z" fill="#4e8a2c"/><path d="M14.1 89 Q14.49 86.95 14.01 85.59 Q14.86 87.29 15.3 89 Z" fill="#4e8a2c"/><path d="M10.77 89 Q10.98 86.02 10.07 84.04 Q11.41 86.52 11.97 89 Z" fill="#4e8a2c"/><path d="M18.72 89 Q19.44 86.14 19.7 84.24 Q19.7 86.62 19.92 89 Z" fill="#4e8a2c"/><path d="M22.55 89 Q23.33 86.3 23.76 84.5 Q23.57 86.75 23.75 89 Z" fill="#4e8a2c"/><path d="M68.1 89 Q68.61 87.51 68.4 86.51 Q68.94 87.75 69.3 89 Z" fill="#4e8a2c"/><path d="M21.24 89 Q21.85 86.46 21.88 84.77 Q22.15 86.89 22.44 89 Z" fill="#4e8a2c"/><path d="M12.26 89 Q12.63 86.87 12.11 85.45 Q13.01 87.22 13.46 89 Z" fill="#3f7424"/><path d="M31.97 89 Q32.76 86.11 33.19 84.18 Q33 86.59 33.17 89 Z" fill="#4e8a2c"/><path d="M104.31 89 Q104.64 86.97 104.01 85.62 Q105.03 87.31 105.51 89 Z" fill="#3f7424"/><path d="M74.98 89 Q75.32 86.38 74.71 84.64 Q75.7 86.82 76.18 89 Z" fill="#4e8a2c"/><path d="M99.22 89 Q99.73 86.34 99.52 84.57 Q100.06 86.78 100.42 89 Z" fill="#4e8a2c"/><path d="M99.31 89 Q99.6 86.77 98.9 85.29 Q100 87.14 100.51 89 Z" fill="#3f7424"/><path d="M86.56 89 Q87.24 86.62 87.44 85.03 Q87.51 87.02 87.76 89 Z" fill="#3f7424"/><path d="M56.28 89 Q56.72 87.17 56.35 85.94 Q57.08 87.47 57.48 89 Z" fill="#4e8a2c"/><path d="M106.41 89 Q106.79 87.01 106.29 85.68 Q107.17 87.34 107.61 89 Z" fill="#3f7424"/><path d="M65.19 89 Q65.47 86.03 64.73 84.04 Q65.88 86.52 66.39 89 Z" fill="#3f7424"/><path d="M14.18 89 Q14.96 86.45 15.38 84.75 Q15.2 86.88 15.38 89 Z" fill="#3f7424"/><path d="M9.99 89 Q10.64 87.26 10.76 86.1 Q10.93 87.55 11.19 89 Z" fill="#3f7424"/><path d="M99.69 89 Q100.44 87.3 100.82 86.16 Q100.69 87.58 100.89 89 Z" fill="#4e8a2c"/><path d="M92.56 89 Q92.94 86.05 92.43 84.09 Q93.32 86.54 93.76 89 Z" fill="#3f7424"/><path d="M63.96 89 Q64.54 86.85 64.48 85.41 Q64.85 87.21 65.16 89 Z" fill="#3f7424"/><path d="M64.79 89 Q65.3 87.75 65.08 86.92 Q65.63 87.96 65.99 89 Z" fill="#4e8a2c"/><path d="M15.04 89 Q15.37 86.82 14.73 85.36 Q15.76 87.18 16.24 89 Z" fill="#3f7424"/><path d="M41.68 89 Q42.36 87.59 42.53 86.65 Q42.63 87.82 42.88 89 Z" fill="#4e8a2c"/>
</svg>
