<svg xmlns="http://www.w3.org/2000/svg" width="26" height="18" viewBox="0 0 26 18">
  <!-- Kapradí. Foot centre (13, 18). -->
  <defs>
  </defs>
  <path d="M13 17 Q7.99 10.07 2.99 12.07" stroke="#3f7424" stroke-width="0.7" fill="none"/><path d="M10.5 15.77 l-1.2 -1.4 M10.5 15.77 l1.2 -1.2" stroke="#4e8a2c" stroke-width="0.8" stroke-linecap="round"/><path d="M9 15.03 l-0.96 -1.4 M9 15.03 l0.96 -1.2" stroke="#4e8a2c" stroke-width="0.8" stroke-linecap="round"/><path d="M7.49 14.29 l-0.72 -1.4 M7.49 14.29 l0.72 -1.2" stroke="#4e8a2c" stroke-width="0.8" stroke-linecap="round"/><path d="M5.99 13.55 l-0.48 -1.4 M5.99 13.55 l0.48 -1.2" stroke="#4e8a2c" stroke-width="0.8" stroke-linecap="round"/><path d="M4.49 12.81 l-0.24 -1.4 M4.49 12.81 l0.24 -1.2" stroke="#4e8a2c" stroke-width="0.8" stroke-linecap="round"/><path d="M13 17 Q8.67 3.72 4.35 5.72" stroke="#3f7424" stroke-width="0.7" fill="none"/><path d="M10.84 14.18 l-1.2 -1.4 M10.84 14.18 l1.2 -1.2" stroke="#4e8a2c" stroke-width="0.8" stroke-linecap="round"/><path d="M9.54 12.49 l-0.96 -1.4 M9.54 12.49 l0.96 -1.2" stroke="#4e8a2c" stroke-width="0.8" stroke-linecap="round"/><path d="M8.24 10.8 l-0.72 -1.4 M8.24 10.8 l0.72 -1.2" stroke="#4e8a2c" stroke-width="0.8" stroke-linecap="round"/><path d="M6.94 9.1 l-0.48 -1.4 M6.94 9.1 l0.48 -1.2" stroke="#4e8a2c" stroke-width="0.8" stroke-linecap="round"/><path d="M5.65 7.41 l-0.24 -1.4 M5.65 7.41 l0.24 -1.2" stroke="#4e8a2c" stroke-width="0.8" stroke-linecap="round"/><path d="M13 17 Q11.15 2.46 9.29 4.46" stroke="#3f7424" stroke-width="0.7" fill="none"/><path d="M12.07 13.86 l-1.2 -1.4 M12.07 13.86 l1.2 -1.2" stroke="#4e8a2c" stroke-width="0.8" stroke-linecap="round"/><path d="M11.52 11.98 l-0.96 -1.4 M11.52 11.98 l0.96 -1.2" stroke="#4e8a2c" stroke-width="0.8" stroke-linecap="round"/><path d="M10.96 10.1 l-0.72 -1.4 M10.96 10.1 l0.72 -1.2" stroke="#4e8a2c" stroke-width="0.8" stroke-linecap="round"/><path d="M10.4 8.22 l-0.48 -1.4 M10.4 8.22 l0.48 -1.2" stroke="#4e8a2c" stroke-width="0.8" stroke-linecap="round"/><path d="M9.85 6.34 l-0.24 -1.4 M9.85 6.34 l0.24 -1.2" stroke="#4e8a2c" stroke-width="0.8" stroke-linecap="round"/><path d="M13 17 Q13.48 1.12 13.97 3.12" stroke="#3f7424" stroke-width="0.7" fill="none"/><path d="M13.24 13.53 l-1.2 -1.4 M13.24 13.53 l1.2 -1.2" stroke="#4e8a2c" stroke-width="0.8" stroke-linecap="round"/><path d="M13.39 11.45 l-0.96 -1.4 M13.39 11.45 l0.96 -1.2" stroke="#4e8a2c" stroke-width="0.8" stroke-linecap="round"/><path d="M13.53 9.37 l-0.72 -1.4 M13.53 9.37 l0.72 -1.2" stroke="#4e8a2c" stroke-width="0.8" stroke-linecap="round"/><path d="M13.68 7.28 l-0.48 -1.4 M13.68 7.28 l0.48 -1.2" stroke="#4e8a2c" stroke-width="0.8" stroke-linecap="round"/><path d="M13.82 5.2 l-0.24 -1.4 M13.82 5.2 l0.24 -1.2" stroke="#4e8a2c" stroke-width="0.8" stroke-linecap="round"/><path d="M13 17 Q15.25 1.38 17.5 3.38" stroke="#3f7424" stroke-width="0.7" fill="none"/><path d="M14.13 13.6 l-1.2 -1.4 M14.13 13.6 l1.2 -1.2" stroke="#4e8a2c" stroke-width="0.8" stroke-linecap="round"/><path d="M14.8 11.55 l-0.96 -1.4 M14.8 11.55 l0.96 -1.2" stroke="#4e8a2c" stroke-width="0.8" stroke-linecap="round"/><path d="M15.48 9.51 l-0.72 -1.4 M15.48 9.51 l0.72 -1.2" stroke="#4e8a2c" stroke-width="0.8" stroke-linecap="round"/><path d="M16.15 7.47 l-0.48 -1.4 M16.15 7.47 l0.48 -1.2" stroke="#4e8a2c" stroke-width="0.8" stroke-linecap="round"/><path d="M16.83 5.42 l-0.24 -1.4 M16.83 5.42 l0.24 -1.2" stroke="#4e8a2c" stroke-width="0.8" stroke-linecap="round"/><path d="M13 17 Q16.79 5.42 20.57 7.42" stroke="#3f7424" stroke-width="0.7" fill="none"/><path d="M14.89 14.61 l-1.2 -1.4 M14.89 14.61 l1.2 -1.2" stroke="#4e8a2c" stroke-width="0.8" stroke-linecap="round"/><path d="M16.03 13.17 l-0.96 -1.4 M16.03 13.17 l0.96 -1.2" stroke="#4e8a2c" stroke-width="0.8" stroke-linecap="round"/><path d="M17.16 11.73 l-0.72 -1.4 M17.16 11.73 l0.72 -1.2" stroke="#4e8a2c" stroke-width="0.8" stroke-linecap="round"/><path d="M18.3 10.29 l-0.48 -1.4 M18.3 10.29 l0.48 -1.2" stroke="#4e8a2c" stroke-width="0.8" stroke-linecap="round"/><path d="M19.44 8.86 l-0.24 -1.4 M19.44 8.86 l0.24 -1.2" stroke="#4e8a2c" stroke-width="0.8" stroke-linecap="round"/><path d="M13 17 Q18.23 8.19 23.45 10.19" stroke="#3f7424" stroke-width="0.7" fill="none"/><path d="M15.61 15.3 l-1.2 -1.4 M15.61 15.3 l1.2 -1.2" stroke="#4e8a2c" stroke-width="0.8" stroke-linecap="round"/><path d="M17.18 14.27 l-0.96 -1.4 M17.18 14.27 l0.96 -1.2" stroke="#4e8a2c" stroke-width="0.8" stroke-linecap="round"/><path d="M18.75 13.25 l-0.72 -1.4 M18.75 13.25 l0.72 -1.2" stroke="#4e8a2c" stroke-width="0.8" stroke-linecap="round"/><path d="M20.32 12.23 l-0.48 -1.4 M20.32 12.23 l0.48 -1.2" stroke="#4e8a2c" stroke-width="0.8" stroke-linecap="round"/><path d="M21.89 11.21 l-0.24 -1.4 M21.89 11.21 l0.24 -1.2" stroke="#4e8a2c" stroke-width="0.8" stroke-linecap="round"/>
</svg>
