<svg xmlns="http://www.w3.org/2000/svg" width="22" height="16" viewBox="0 0 22 16">
  <!-- Vlčí máky: red poppies at the field edge. Foot centre (11, 16). -->
  <defs>
  </defs>
  <path d="M0.73 16 Q1.39 11.61 1.55 8.68 Q1.67 12.34 1.93 16 Z" fill="#4e8a2c"/><path d="M9.9 16 Q9.87 11.53 8.39 8.55 Q10.38 12.27 11.1 16 Z" fill="#4e8a2c"/><path d="M18.78 16 Q19.17 12.9 18.67 10.83 Q19.54 13.41 19.98 16 Z" fill="#4e8a2c"/><path d="M4.04 16 Q4.69 12.01 4.79 9.35 Q4.97 12.68 5.24 16 Z" fill="#4e8a2c"/><path d="M15.79 16 Q16.15 14.06 15.59 12.77 Q16.53 14.39 16.99 16 Z" fill="#6fae3e"/><path d="M16.56 16 Q17.48 12.44 18.21 10.06 Q17.67 13.03 17.76 16 Z" fill="#6fae3e"/><path d="M4.03 16 Q4.67 14.13 4.79 12.89 Q4.96 14.44 5.23 16 Z" fill="#4e8a2c"/><path d="M13.97 16 Q14.47 14.78 14.24 13.96 Q14.81 14.98 15.17 16 Z" fill="#4e8a2c"/><path d="M9.67 16 Q10.21 11.51 10.06 8.52 Q10.53 12.26 10.87 16 Z" fill="#6fae3e"/><path d="M14.48 16 Q14.86 13.92 14.32 12.54 Q15.23 14.27 15.68 16 Z" fill="#4e8a2c"/><path d="M0.74 16 Q1.14 13.83 0.69 12.39 Q1.51 14.19 1.94 16 Z" fill="#6fae3e"/><path d="M9.33 16 Q9.97 14.79 10.04 13.98 Q10.25 14.99 10.53 16 Z" fill="#4e8a2c"/>
  <path d="M2.3 16 Q3.8 12.02 3.18 8.04" stroke="#4e8a2c" stroke-width="0.5" fill="none"/><ellipse cx="3.5" cy="8.04" rx="0.9" ry="0.7" fill="#c62828"/><ellipse cx="2.67" cy="9.19" rx="0.9" ry="0.7" fill="#c62828"/><ellipse cx="1.33" cy="8.75" rx="0.9" ry="0.7" fill="#c62828"/><ellipse cx="1.33" cy="7.34" rx="0.9" ry="0.7" fill="#c62828"/><ellipse cx="2.67" cy="6.9" rx="0.9" ry="0.7" fill="#c62828"/><circle cx="2.3" cy="8.04" r="0.6" fill="#f4d03f"/><path d="M14.42 16 Q13.64 12.93 14.61 9.85" stroke="#4e8a2c" stroke-width="0.5" fill="none"/><ellipse cx="15.62" cy="9.85" rx="0.9" ry="0.7" fill="#e53935"/><ellipse cx="14.79" cy="11" rx="0.9" ry="0.7" fill="#e53935"/><ellipse cx="13.45" cy="10.56" rx="0.9" ry="0.7" fill="#e53935"/><ellipse cx="13.45" cy="9.15" rx="0.9" ry="0.7" fill="#e53935"/><ellipse cx="14.79" cy="8.71" rx="0.9" ry="0.7" fill="#e53935"/><circle cx="14.42" cy="9.85" r="0.6" fill="#f4d03f"/><path d="M17.99 16 Q18.71 12.41 17.96 8.82" stroke="#4e8a2c" stroke-width="0.5" fill="none"/><ellipse cx="19.19" cy="8.82" rx="0.9" ry="0.7" fill="#e53935"/><ellipse cx="18.36" cy="9.96" rx="0.9" ry="0.7" fill="#e53935"/><ellipse cx="17.02" cy="9.52" rx="0.9" ry="0.7" fill="#e53935"/><ellipse cx="17.02" cy="8.11" rx="0.9" ry="0.7" fill="#e53935"/><ellipse cx="18.36" cy="7.68" rx="0.9" ry="0.7" fill="#e53935"/><circle cx="17.99" cy="8.82" r="0.6" fill="#f4d03f"/><path d="M10.81 16 Q11.43 9.39 11.08 2.79" stroke="#4e8a2c" stroke-width="0.5" fill="none"/><ellipse cx="12.01" cy="2.79" rx="0.9" ry="0.7" fill="#e53935"/><ellipse cx="11.18" cy="3.93" rx="0.9" ry="0.7" fill="#e53935"/><ellipse cx="9.83" cy="3.49" rx="0.9" ry="0.7" fill="#e53935"/><ellipse cx="9.83" cy="2.08" rx="0.9" ry="0.7" fill="#e53935"/><ellipse cx="11.18" cy="1.65" rx="0.9" ry="0.7" fill="#e53935"/><circle cx="10.81" cy="2.79" r="0.6" fill="#f4d03f"/><path d="M9.03 16 Q9.44 12.88 8.7 9.76" stroke="#4e8a2c" stroke-width="0.5" fill="none"/><ellipse cx="10.23" cy="9.76" rx="0.9" ry="0.7" fill="#e53935"/><ellipse cx="9.4" cy="10.9" rx="0.9" ry="0.7" fill="#e53935"/><ellipse cx="8.06" cy="10.46" rx="0.9" ry="0.7" fill="#e53935"/><ellipse cx="8.06" cy="9.05" rx="0.9" ry="0.7" fill="#e53935"/><ellipse cx="9.4" cy="8.62" rx="0.9" ry="0.7" fill="#e53935"/><circle cx="9.03" cy="9.76" r="0.6" fill="#f4d03f"/><path d="M13.85 16 Q13.13 10.98 13.46 5.95" stroke="#4e8a2c" stroke-width="0.5" fill="none"/><ellipse cx="15.05" cy="5.95" rx="0.9" ry="0.7" fill="#c62828"/><ellipse cx="14.22" cy="7.09" rx="0.9" ry="0.7" fill="#c62828"/><ellipse cx="12.88" cy="6.66" rx="0.9" ry="0.7" fill="#c62828"/><ellipse cx="12.88" cy="5.25" rx="0.9" ry="0.7" fill="#c62828"/><ellipse cx="14.22" cy="4.81" rx="0.9" ry="0.7" fill="#c62828"/><circle cx="13.85" cy="5.95" r="0.6" fill="#f4d03f"/><path d="M7.67 16 Q8.77 11.66 8.1 7.32" stroke="#4e8a2c" stroke-width="0.5" fill="none"/><ellipse cx="8.87" cy="7.32" rx="0.9" ry="0.7" fill="#e53935"/><ellipse cx="8.04" cy="8.46" rx="0.9" ry="0.7" fill="#e53935"/><ellipse cx="6.7" cy="8.02" rx="0.9" ry="0.7" fill="#e53935"/><ellipse cx="6.7" cy="6.61" rx="0.9" ry="0.7" fill="#e53935"/><ellipse cx="8.04" cy="6.18" rx="0.9" ry="0.7" fill="#e53935"/><circle cx="7.67" cy="7.32" r="0.6" fill="#f4d03f"/>
</svg>
