<svg xmlns="http://www.w3.org/2000/svg" width="100" height="100" viewBox="0 0 100 100">
  <!-- Vrba: wide crown with hanging strands, for water edges. Foot centre (50, 100). -->
  <defs>
  </defs>
  <ellipse cx="50" cy="98.8" rx="34" ry="3" fill="#1d2a14" fill-opacity="0.18"/>
  <path d="M50 62 Q42 44 34 46" stroke="#1d2a14" stroke-width="4.1" fill="none" stroke-linecap="round"/><path d="M50 62 Q42 44 34 46" stroke="#5d4a36" stroke-width="3" fill="none" stroke-linecap="round"/><path d="M51 60 Q58.5 42 66 44" stroke="#1d2a14" stroke-width="4.1" fill="none" stroke-linecap="round"/><path d="M51 60 Q58.5 42 66 44" stroke="#5d4a36" stroke-width="3" fill="none" stroke-linecap="round"/><path d="M45 99 Q45.9 74.5 46.5 50 H53.5 Q54.1 74.5 55 99 Z" fill="#5d4a36" stroke="#1d2a14" stroke-width="0.6"/><path d="M50.7 50 H53.5 Q54.1 74.5 55 99 H51.5 Z" fill="#413426"/><path d="M47.81 50.25 q0.6 2 0 4" stroke="#33291e" stroke-width="0.4" fill="none"/><path d="M50.11 60.33 q0.6 2 0 4" stroke="#33291e" stroke-width="0.4" fill="none"/><path d="M51.47 83.9 q0.6 2 0 4" stroke="#33291e" stroke-width="0.4" fill="none"/><path d="M49.2 57.03 q0.6 2 0 4" stroke="#33291e" stroke-width="0.4" fill="none"/><path d="M50.7 84.02 q0.6 2 0 4" stroke="#33291e" stroke-width="0.4" fill="none"/><path d="M51.07 93.04 q0.6 2 0 4" stroke="#33291e" stroke-width="0.4" fill="none"/><path d="M42.8 99 Q45 97 47.5 96 M57.2 99 Q55 97 52.5 96" stroke="#1d2a14" stroke-width="0.6" fill="#5d4a36"/>
  <g fill="#1d2a14"><circle cx="61.91" cy="34.22" r="14.54"/><circle cx="60.62" cy="37.59" r="10.34"/><circle cx="52.81" cy="38.09" r="11.41"/><circle cx="45.99" cy="26.74" r="11.41"/><circle cx="72.62" cy="27.92" r="11.79"/><circle cx="59.27" cy="47.68" r="9.99"/><circle cx="54.12" cy="42.03" r="13.63"/><circle cx="41.17" cy="43.13" r="14.08"/><circle cx="65.47" cy="34.48" r="14.58"/><circle cx="27.67" cy="30.01" r="14.14"/><circle cx="35.42" cy="31.71" r="9.47"/><circle cx="46.19" cy="34.43" r="12.71"/><circle cx="32.9" cy="37.91" r="9.75"/><circle cx="54.39" cy="46.96" r="11.71"/><circle cx="62.78" cy="41.2" r="14.49"/><circle cx="58.33" cy="46.19" r="12.4"/></g><g fill="#50722a"><circle cx="61.91" cy="34.22" r="13.74"/><circle cx="60.62" cy="37.59" r="9.54"/><circle cx="52.81" cy="38.09" r="10.61"/><circle cx="45.99" cy="26.74" r="10.61"/><circle cx="72.62" cy="27.92" r="10.99"/><circle cx="59.27" cy="47.68" r="9.19"/><circle cx="54.12" cy="42.03" r="12.83"/><circle cx="41.17" cy="43.13" r="13.28"/><circle cx="65.47" cy="34.48" r="13.78"/><circle cx="27.67" cy="30.01" r="13.34"/><circle cx="35.42" cy="31.71" r="8.67"/><circle cx="46.19" cy="34.43" r="11.91"/><circle cx="32.9" cy="37.91" r="8.95"/><circle cx="54.39" cy="46.96" r="10.91"/><circle cx="62.78" cy="41.2" r="13.69"/><circle cx="58.33" cy="46.19" r="11.6"/></g><g fill="#6f9e3a"><circle cx="59.44" cy="31.47" r="11.27"/><circle cx="58.91" cy="35.68" r="7.82"/><circle cx="50.9" cy="35.97" r="8.7"/><circle cx="44.08" cy="24.62" r="8.7"/><circle cx="70.64" cy="25.72" r="9.01"/><circle cx="57.61" cy="45.84" r="7.53"/><circle cx="51.81" cy="39.47" r="10.52"/><circle cx="38.78" cy="40.48" r="10.89"/><circle cx="62.99" cy="31.73" r="11.3"/><circle cx="25.27" cy="27.34" r="10.94"/><circle cx="33.86" cy="29.97" r="7.11"/><circle cx="44.04" cy="32.05" r="9.77"/><circle cx="31.29" cy="36.12" r="7.33"/><circle cx="52.43" cy="44.77" r="8.95"/><circle cx="60.32" cy="38.46" r="11.23"/><circle cx="56.25" cy="43.87" r="9.51"/></g><g fill="#8fb365"><circle cx="42.6" cy="22.92" r="5.3"/><circle cx="23.4" cy="25.21" r="6.67"/><circle cx="32.64" cy="28.59" r="4.34"/><circle cx="42.37" cy="30.14" r="5.95"/></g><g fill="#abc78d" fill-opacity="0.8"><circle cx="41.54" cy="21.86" r="2.55"/><circle cx="22.07" cy="23.87" r="3.2"/></g><g><path d="M56.84 23.5 q1.2 -1.6 2.6 -0.4 q-1.2 1.4 -2.6 0.4z" fill="#8fb365"/><path d="M47.66 18.64 q1.2 -1.6 2.6 -0.4 q-1.2 1.4 -2.6 0.4z" fill="#8fb365"/><path d="M57.44 45.28 q1.2 -1.6 2.6 -0.4 q-1.2 1.4 -2.6 0.4z" fill="#50722a"/><path d="M68.31 47.69 q1.2 -1.6 2.6 -0.4 q-1.2 1.4 -2.6 0.4z" fill="#8fb365"/><path d="M55.18 20.77 q1.2 -1.6 2.6 -0.4 q-1.2 1.4 -2.6 0.4z" fill="#8fb365"/><path d="M37.35 33.14 q1.2 -1.6 2.6 -0.4 q-1.2 1.4 -2.6 0.4z" fill="#50722a"/><path d="M37.29 36.17 q1.2 -1.6 2.6 -0.4 q-1.2 1.4 -2.6 0.4z" fill="#8fb365"/><path d="M76.21 22.48 q1.2 -1.6 2.6 -0.4 q-1.2 1.4 -2.6 0.4z" fill="#50722a"/><path d="M41.35 16.88 q1.2 -1.6 2.6 -0.4 q-1.2 1.4 -2.6 0.4z" fill="#8fb365"/><path d="M78.15 26.13 q1.2 -1.6 2.6 -0.4 q-1.2 1.4 -2.6 0.4z" fill="#8fb365"/><path d="M70.13 23.72 q1.2 -1.6 2.6 -0.4 q-1.2 1.4 -2.6 0.4z" fill="#50722a"/><path d="M67.95 43.3 q1.2 -1.6 2.6 -0.4 q-1.2 1.4 -2.6 0.4z" fill="#8fb365"/><path d="M37.48 24.43 q1.2 -1.6 2.6 -0.4 q-1.2 1.4 -2.6 0.4z" fill="#8fb365"/><path d="M75.48 29.08 q1.2 -1.6 2.6 -0.4 q-1.2 1.4 -2.6 0.4z" fill="#8fb365"/><path d="M42.1 30.35 q1.2 -1.6 2.6 -0.4 q-1.2 1.4 -2.6 0.4z" fill="#50722a"/><path d="M40.02 51.39 q1.2 -1.6 2.6 -0.4 q-1.2 1.4 -2.6 0.4z" fill="#50722a"/><path d="M58.11 51.84 q1.2 -1.6 2.6 -0.4 q-1.2 1.4 -2.6 0.4z" fill="#50722a"/><path d="M36.51 39.13 q1.2 -1.6 2.6 -0.4 q-1.2 1.4 -2.6 0.4z" fill="#8fb365"/><path d="M35.75 38.36 q1.2 -1.6 2.6 -0.4 q-1.2 1.4 -2.6 0.4z" fill="#50722a"/><path d="M83.48 34.86 q1.2 -1.6 2.6 -0.4 q-1.2 1.4 -2.6 0.4z" fill="#50722a"/><path d="M37.34 45.36 q1.2 -1.6 2.6 -0.4 q-1.2 1.4 -2.6 0.4z" fill="#8fb365"/><path d="M70.57 44.77 q1.2 -1.6 2.6 -0.4 q-1.2 1.4 -2.6 0.4z" fill="#50722a"/><path d="M47.25 43.89 q1.2 -1.6 2.6 -0.4 q-1.2 1.4 -2.6 0.4z" fill="#50722a"/><path d="M79.24 39.93 q1.2 -1.6 2.6 -0.4 q-1.2 1.4 -2.6 0.4z" fill="#8fb365"/><path d="M46.46 37.88 q1.2 -1.6 2.6 -0.4 q-1.2 1.4 -2.6 0.4z" fill="#50722a"/><path d="M36.44 18.45 q1.2 -1.6 2.6 -0.4 q-1.2 1.4 -2.6 0.4z" fill="#50722a"/></g>
  <g><path d="M14.37 46.82 q-1.36 23.79 1.39 39.65" stroke="#6f9e3a" stroke-width="1.17" fill="none" stroke-linecap="round"/><path d="M66.53 26.33 q-0.66 30.58 -1.39 50.96" stroke="#6f9e3a" stroke-width="1.7" fill="none" stroke-linecap="round"/><path d="M38.35 28.9 q-0.25 26.94 -1.9 44.89" stroke="#6f9e3a" stroke-width="1.77" fill="none" stroke-linecap="round"/><path d="M82.89 32.9 q-0.8 15.93 1.73 26.56" stroke="#6f9e3a" stroke-width="1.27" fill="none" stroke-linecap="round"/><path d="M84.24 36.71 q-0.07 28.6 -0.76 47.66" stroke="#4f7f2a" stroke-width="1.49" fill="none" stroke-linecap="round"/><path d="M83.32 29.83 q-0.04 33.37 -1.24 55.62" stroke="#6f9e3a" stroke-width="1.43" fill="none" stroke-linecap="round"/><path d="M62.85 47.3 q0.04 27.37 1.75 45.61" stroke="#6f9e3a" stroke-width="1.28" fill="none" stroke-linecap="round"/><path d="M47.69 40.37 q0.85 29.65 -0.16 49.42" stroke="#6f9e3a" stroke-width="1.14" fill="none" stroke-linecap="round"/><path d="M56.34 33.72 q1.9 33.36 -0.06 55.6" stroke="#6f9e3a" stroke-width="1.29" fill="none" stroke-linecap="round"/><path d="M77.42 29.75 q1.9 24.93 -0.17 41.56" stroke="#4f7f2a" stroke-width="1.62" fill="none" stroke-linecap="round"/><path d="M83.65 46.2 q-1.35 18.32 2.99 30.53" stroke="#6f9e3a" stroke-width="1.79" fill="none" stroke-linecap="round"/><path d="M21.6 33.94 q1.47 17.49 -0.07 29.16" stroke="#6f9e3a" stroke-width="1.15" fill="none" stroke-linecap="round"/><path d="M79.62 28.82 q0.57 27.2 -0.92 45.33" stroke="#6f9e3a" stroke-width="1.2" fill="none" stroke-linecap="round"/><path d="M48.47 26.46 q-1.22 20.53 -0.69 34.22" stroke="#4f7f2a" stroke-width="1.27" fill="none" stroke-linecap="round"/><path d="M15.35 38.67 q1.39 18.44 2.25 30.74" stroke="#6f9e3a" stroke-width="1.53" fill="none" stroke-linecap="round"/><path d="M76.2 34.58 q-0.02 30.87 -0.04 51.46" stroke="#6f9e3a" stroke-width="1.54" fill="none" stroke-linecap="round"/><path d="M55.75 43.1 q0.43 16.06 0.77 26.76" stroke="#4f7f2a" stroke-width="1.4" fill="none" stroke-linecap="round"/><path d="M29.29 29.18 q1.39 24.65 1.59 41.08" stroke="#4f7f2a" stroke-width="1.23" fill="none" stroke-linecap="round"/><path d="M82.41 38.78 q-0.8 25.9 -2.94 43.17" stroke="#4f7f2a" stroke-width="1.36" fill="none" stroke-linecap="round"/><path d="M40.63 26.52 q0.08 20.76 -2.22 34.59" stroke="#6f9e3a" stroke-width="1.75" fill="none" stroke-linecap="round"/><path d="M18.45 37.56 q1.86 26.63 -1.83 44.38" stroke="#4f7f2a" stroke-width="1.62" fill="none" stroke-linecap="round"/><path d="M42.66 40.42 q-0.86 31.95 -1.16 53.24" stroke="#4f7f2a" stroke-width="1.13" fill="none" stroke-linecap="round"/><path d="M15.73 46.83 q1.6 29.22 1.99 48.7" stroke="#6f9e3a" stroke-width="1.68" fill="none" stroke-linecap="round"/><path d="M80.34 33.41 q-1.98 21.87 2.49 36.45" stroke="#4f7f2a" stroke-width="1.71" fill="none" stroke-linecap="round"/><path d="M34.79 30.77 q1.71 28.48 -1.72 47.47" stroke="#6f9e3a" stroke-width="1.78" fill="none" stroke-linecap="round"/><path d="M49.22 31.96 q1.83 21.13 -2.79 35.22" stroke="#4f7f2a" stroke-width="1.78" fill="none" stroke-linecap="round"/><path d="M65.29 44.41 q-1.16 28.88 1.78 48.14" stroke="#6f9e3a" stroke-width="1.33" fill="none" stroke-linecap="round"/><path d="M16.04 37.1 q-0.37 23.46 0.68 39.11" stroke="#4f7f2a" stroke-width="1.48" fill="none" stroke-linecap="round"/><path d="M75.48 31.29 q-0.33 22.75 -2.05 37.92" stroke="#6f9e3a" stroke-width="1.45" fill="none" stroke-linecap="round"/><path d="M76.51 41.16 q-1.83 19.88 -0.78 33.14" stroke="#6f9e3a" stroke-width="1.57" fill="none" stroke-linecap="round"/><path d="M29.1 35.02 q0.33 31.18 -2.76 51.97" stroke="#6f9e3a" stroke-width="1.29" fill="none" stroke-linecap="round"/><path d="M15.44 32.03 q-1.93 26.76 -1.46 44.6" stroke="#4f7f2a" stroke-width="1.17" fill="none" stroke-linecap="round"/><path d="M55.2 30.21 q1.62 21.65 2.37 36.08" stroke="#4f7f2a" stroke-width="1.34" fill="none" stroke-linecap="round"/><path d="M35.77 38.1 q1.87 15.74 -0.2 26.24" stroke="#4f7f2a" stroke-width="1.68" fill="none" stroke-linecap="round"/><path d="M64.34 30.18 q-1.85 27.74 -1.83 46.23" stroke="#4f7f2a" stroke-width="1.36" fill="none" stroke-linecap="round"/><path d="M72.61 35.15 q-0.37 25.19 -0.64 41.98" stroke="#4f7f2a" stroke-width="1.51" fill="none" stroke-linecap="round"/><path d="M27.37 42.91 q-1.49 33.17 2.11 55.29" stroke="#6f9e3a" stroke-width="1.57" fill="none" stroke-linecap="round"/><path d="M76.89 39.12 q-1.89 29.57 -2.96 49.28" stroke="#6f9e3a" stroke-width="1.2" fill="none" stroke-linecap="round"/></g>
</svg>
